<?xml version="1.0" encoding="utf-8"?>
<!-- Generator: Adobe Illustrator 19.0.0, SVG Export Plug-In . SVG Version: 6.00 Build 0)  -->
<svg version="1.1" id="Layer_1" xmlns="http://www.w3.org/2000/svg" xmlns:xlink="http://www.w3.org/1999/xlink" x="0px" y="0px"
	 viewBox="0 0 400.7 369.5" style="enable-background:new 0 0 400.7 369.5;" xml:space="preserve">
<style type="text/css">
	.st0{fill:none;stroke:#E30613;stroke-width:2.5;stroke-miterlimit:10;}
</style>
<g id="XMLID_4_">
	<path id="XMLID_19_" class="st0" d="M201,79.9c3.5-5.8,6.8-12.1,10.8-17.9c13.3-19.3,31.6-31.2,54.2-37c11.2-2.8,22.6-3.7,34-2.8
		c20,1.5,38.1,8,53.5,21.4c18.5,16.1,29.1,36.4,33.3,60.3c1.2,6.9,2.3,14,2.1,21c-0.7,19.8-6,38.3-16.6,55.2
		c-10.1,16-22.5,30.1-36.4,42.8c-13.9,12.7-28.6,24.5-43,36.6c-11.2,9.5-22.6,18.8-33.7,28.6c-10.4,9.1-20.9,18.2-30.3,28.3
		c-10.1,10.7-19,22.6-28.2,33.7c-5.7-7.4-11.5-16-18.3-23.6c-8.6-9.6-17.9-18.5-27.1-27.4c-5.6-5.4-11.7-10.3-17.6-15.3
		c-8-6.9-16.1-13.7-24.2-20.5c-8.8-7.4-17.7-14.5-26.3-22c-10.2-8.9-20.6-17.6-30.1-27.3c-13.4-13.7-25.8-28.3-33.8-46
		c-4.6-10.2-7.9-20.7-8.8-31.9c-0.4-4.7-1.6-9.4-1.3-14.1c1.1-23.7,7.9-45.5,22.6-64.6c13.9-18,32.1-28.9,54.1-33.4
		c10.4-2.1,21-2.2,31.6-1.1C135,24,147.6,27.6,159.4,34c14.9,8.1,26.6,19.6,35.2,34.3C196.9,72.2,199,76.2,201,79.9z"/>
</g>
</svg>
